<?xml version="1.0" standalone="no"?>
<!DOCTYPE svg PUBLIC "-//W3C//DTD SVG 20010904//EN"
 "http://www.w3.org/TR/2001/REC-SVG-20010904/DTD/svg10.dtd">
<svg version="1.0" xmlns="http://www.w3.org/2000/svg"
 width="1254.000000pt" height="1254.000000pt" viewBox="0 0 1254.000000 1254.000000"
 preserveAspectRatio="xMidYMid meet">

<g transform="translate(0.000000,1254.000000) scale(0.100000,-0.100000)"
fill="#000000" stroke="none">
<path d="M0 6270 l0 -6270 6270 0 6270 0 0 6270 0 6270 -6270 0 -6270 0 0
-6270z m6385 3679 c33 -6 88 -21 122 -34 154 -58 136 -41 1448 -1361 677 -680
1253 -1267 1282 -1305 58 -77 131 -206 170 -301 78 -191 107 -373 106 -668 -1
-342 -34 -509 -148 -746 -38 -78 -91 -167 -132 -222 -46 -61 -449 -474 -1263
-1294 -657 -661 -1224 -1227 -1259 -1255 -81 -65 -183 -117 -287 -144 -72 -18
-117 -21 -488 -26 -279 -3 -407 -2 -405 5 2 6 51 59 109 119 181 186 1129
1152 1490 1518 1187 1203 1131 1144 1226 1290 163 253 236 494 236 780 1 169
-19 287 -73 442 -48 137 -150 319 -248 443 -20 25 -644 657 -1388 1405 l-1352
1360 72 5 c123 9 719 0 782 -11z m-1665 -11 c76 -14 170 -59 249 -117 36 -27
219 -204 406 -393 186 -189 544 -550 795 -803 938 -949 1759 -1782 1816 -1846
75 -84 127 -173 161 -274 23 -69 27 -96 27 -205 0 -107 -4 -136 -26 -202 -38
-114 -89 -197 -186 -301 -78 -84 -801 -830 -1256 -1297 -94 -96 -234 -240
-311 -320 -77 -80 -294 -302 -481 -495 -187 -192 -459 -473 -604 -623 -282
-291 -344 -345 -455 -398 -108 -52 -184 -67 -295 -61 -255 13 -456 170 -502
391 l-12 55 74 78 c117 122 779 802 1045 1073 132 135 398 407 590 605 192
198 445 457 560 575 300 306 394 454 454 710 66 283 10 548 -174 825 -43 66
-289 317 -1300 1331 l-1246 1249 5 59 c7 86 52 171 132 245 146 137 316 181
534 139z m534 -2325 c529 -531 952 -963 969 -990 98 -156 118 -342 56 -510
-37 -98 -99 -181 -269 -358 -489 -507 -724 -750 -900 -930 -224 -229 -756
-778 -938 -968 l-122 -129 0 69 c0 159 43 329 131 512 103 217 91 203 909
1065 597 630 573 603 625 710 49 102 65 168 65 259 0 134 -66 296 -164 405
-28 32 -188 197 -356 367 -544 551 -814 827 -865 883 -197 214 -345 552 -345
788 l0 53 132 -142 c73 -78 555 -566 1072 -1084z"/>
</g>
</svg>
